<svg width="478" height="175" viewBox="0 0 478 175" fill="none" xmlns="http://www.w3.org/2000/svg">
<rect x="9.66797" y="43.0261" width="109.573" height="19.3364" rx="9.66822" fill="#FAFAFA"/>
<rect x="9.66797" y="77.8318" width="27.8445" height="19.3364" rx="9.66822" fill="#FAFAFA"/>
<rect x="40.9932" y="77.8318" width="78.2481" height="19.3364" rx="9.66822" fill="white"/>
<rect x="9.66797" y="112.637" width="64.3259" height="19.3364" rx="9.66822" fill="#FAFAFA"/>
<rect x="77.4746" y="112.637" width="41.7667" height="19.3364" rx="9.66822" fill="#FAFAFA"/>
<path d="M188.557 128.818C180.844 128.818 173.754 127.026 167.288 123.442C160.9 119.859 155.797 114.873 151.979 108.484C148.24 102.018 146.37 94.7728 146.37 86.7484C146.37 78.724 148.24 71.5176 151.979 65.1293C155.797 58.7409 160.9 53.7549 167.288 50.1712C173.754 46.5875 180.844 44.7956 188.557 44.7956C196.269 44.7956 203.32 46.5875 209.708 50.1712C216.174 53.7549 221.238 58.7409 224.9 65.1293C228.64 71.5176 230.509 78.724 230.509 86.7484C230.509 94.7728 228.64 102.018 224.9 108.484C221.161 114.873 216.097 119.859 209.708 123.442C203.32 127.026 196.269 128.818 188.557 128.818ZM188.557 110.588C195.101 110.588 200.32 108.406 204.216 104.044C208.189 99.6809 210.176 93.9158 210.176 86.7484C210.176 79.5031 208.189 73.738 204.216 69.4531C200.32 65.0903 195.101 62.9089 188.557 62.9089C181.934 62.9089 176.637 65.0514 172.664 69.3362C168.768 73.6211 166.821 79.4251 166.821 86.7484C166.821 93.9937 168.768 99.7978 172.664 104.161C176.637 108.445 181.934 110.588 188.557 110.588ZM306.016 62.7921V128H286.033V119.119C284.008 122.001 281.242 124.338 277.736 126.13C274.308 127.844 270.491 128.701 266.284 128.701C261.298 128.701 256.896 127.61 253.079 125.429C249.261 123.17 246.301 119.937 244.197 115.73C242.094 111.523 241.042 106.576 241.042 100.888V62.7921H260.908V98.2007C260.908 102.563 262.038 105.952 264.297 108.368C266.557 110.783 269.595 111.99 273.413 111.99C277.308 111.99 280.385 110.783 282.644 108.368C284.904 105.952 286.033 102.563 286.033 98.2007V62.7921H306.016ZM356.714 111.055V128H346.547C339.302 128 333.653 126.247 329.602 122.741C325.551 119.158 323.525 113.354 323.525 105.329V79.3862H315.579V62.7921H323.525V46.8991H343.508V62.7921H356.597V79.3862H343.508V105.563C343.508 107.511 343.976 108.913 344.911 109.77C345.846 110.627 347.404 111.055 349.585 111.055H356.714ZM387.828 41.5235V128H367.845V41.5235H387.828ZM412.359 56.0142C408.853 56.0142 405.971 55.0014 403.712 52.9758C401.53 50.8723 400.439 48.3014 400.439 45.263C400.439 42.1468 401.53 39.5759 403.712 37.5503C405.971 35.4468 408.853 34.3951 412.359 34.3951C415.787 34.3951 418.592 35.4468 420.773 37.5503C423.032 39.5759 424.162 42.1468 424.162 45.263C424.162 48.3014 423.032 50.8723 420.773 52.9758C418.592 55.0014 415.787 56.0142 412.359 56.0142ZM422.292 62.7921V128H402.309V62.7921H422.292ZM473.117 111.055V128H462.95C455.705 128 450.057 126.247 446.006 122.741C441.955 119.158 439.929 113.354 439.929 105.329V79.3862H431.983V62.7921H439.929V46.8991H459.912V62.7921H473V79.3862H459.912V105.563C459.912 107.511 460.38 108.913 461.314 109.77C462.249 110.627 463.807 111.055 465.989 111.055H473.117Z" fill="#FAFAFA"/>
</svg>
